<mxfile host="app.diagrams.net" modified="2020-09-13T18:22:15.662Z" agent="5.0 (X11)" etag="EyIuUSAK9ARgiOea2W68" version="13.6.10" type="github">
  <diagram id="qY6m2ZeRlWgvTw5SZQ-P" name="Page-1">
    <mxGraphModel dx="1327" dy="758" grid="1" gridSize="10" guides="1" tooltips="1" connect="1" arrows="1" fold="1" page="1" pageScale="1" pageWidth="827" pageHeight="1169" math="0" shadow="0">
      <root>
        <mxCell id="0" />
        <mxCell id="1" parent="0" />
        <mxCell id="qkcDjprL795d0uu2f6pP-1" value="" style="edgeStyle=entityRelationEdgeStyle;endArrow=ERzeroToMany;startArrow=ERone;endFill=1;startFill=0;" edge="1" parent="1" source="qkcDjprL795d0uu2f6pP-13" target="qkcDjprL795d0uu2f6pP-6">
          <mxGeometry width="100" height="100" relative="1" as="geometry">
            <mxPoint x="340" y="720" as="sourcePoint" />
            <mxPoint x="440" y="620" as="targetPoint" />
          </mxGeometry>
        </mxCell>
        <mxCell id="qkcDjprL795d0uu2f6pP-2" value="Modulos" style="shape=table;startSize=30;container=1;collapsible=1;childLayout=tableLayout;fixedRows=1;rowLines=0;fontStyle=1;align=center;resizeLast=1;" vertex="1" parent="1">
          <mxGeometry x="450" y="120" width="280" height="160" as="geometry" />
        </mxCell>
        <mxCell id="qkcDjprL795d0uu2f6pP-3" value="" style="shape=partialRectangle;collapsible=0;dropTarget=0;pointerEvents=0;fillColor=none;points=[[0,0.5],[1,0.5]];portConstraint=eastwest;top=0;left=0;right=0;bottom=1;" vertex="1" parent="qkcDjprL795d0uu2f6pP-2">
          <mxGeometry y="30" width="280" height="30" as="geometry" />
        </mxCell>
        <mxCell id="qkcDjprL795d0uu2f6pP-4" value="PK" style="shape=partialRectangle;overflow=hidden;connectable=0;fillColor=none;top=0;left=0;bottom=0;right=0;fontStyle=1;" vertex="1" parent="qkcDjprL795d0uu2f6pP-3">
          <mxGeometry width="30" height="30" as="geometry" />
        </mxCell>
        <mxCell id="qkcDjprL795d0uu2f6pP-5" value="IdModulo int NOT NULL " style="shape=partialRectangle;overflow=hidden;connectable=0;fillColor=none;top=0;left=0;bottom=0;right=0;align=left;spacingLeft=6;fontStyle=5;" vertex="1" parent="qkcDjprL795d0uu2f6pP-3">
          <mxGeometry x="30" width="250" height="30" as="geometry" />
        </mxCell>
        <mxCell id="qkcDjprL795d0uu2f6pP-6" value="" style="shape=partialRectangle;collapsible=0;dropTarget=0;pointerEvents=0;fillColor=none;points=[[0,0.5],[1,0.5]];portConstraint=eastwest;top=0;left=0;right=0;bottom=0;" vertex="1" parent="qkcDjprL795d0uu2f6pP-2">
          <mxGeometry y="60" width="280" height="30" as="geometry" />
        </mxCell>
        <mxCell id="qkcDjprL795d0uu2f6pP-7" value="" style="shape=partialRectangle;overflow=hidden;connectable=0;fillColor=none;top=0;left=0;bottom=0;right=0;" vertex="1" parent="qkcDjprL795d0uu2f6pP-6">
          <mxGeometry width="30" height="30" as="geometry" />
        </mxCell>
        <mxCell id="qkcDjprL795d0uu2f6pP-8" value="IdProfesor int NOT NULL" style="shape=partialRectangle;overflow=hidden;connectable=0;fillColor=none;top=0;left=0;bottom=0;right=0;align=left;spacingLeft=6;" vertex="1" parent="qkcDjprL795d0uu2f6pP-6">
          <mxGeometry x="30" width="250" height="30" as="geometry" />
        </mxCell>
        <mxCell id="qkcDjprL795d0uu2f6pP-9" value="" style="shape=partialRectangle;collapsible=0;dropTarget=0;pointerEvents=0;fillColor=none;points=[[0,0.5],[1,0.5]];portConstraint=eastwest;top=0;left=0;right=0;bottom=0;" vertex="1" parent="qkcDjprL795d0uu2f6pP-2">
          <mxGeometry y="90" width="280" height="30" as="geometry" />
        </mxCell>
        <mxCell id="qkcDjprL795d0uu2f6pP-10" value="FK1" style="shape=partialRectangle;overflow=hidden;connectable=0;fillColor=none;top=0;left=0;bottom=0;right=0;" vertex="1" parent="qkcDjprL795d0uu2f6pP-9">
          <mxGeometry width="30" height="30" as="geometry" />
        </mxCell>
        <mxCell id="qkcDjprL795d0uu2f6pP-11" value="Codigo varchar(50) NOT NULL" style="shape=partialRectangle;overflow=hidden;connectable=0;fillColor=none;top=0;left=0;bottom=0;right=0;align=left;spacingLeft=6;" vertex="1" parent="qkcDjprL795d0uu2f6pP-9">
          <mxGeometry x="30" width="250" height="30" as="geometry" />
        </mxCell>
        <mxCell id="qkcDjprL795d0uu2f6pP-12" value="Profesores" style="shape=table;startSize=30;container=1;collapsible=1;childLayout=tableLayout;fixedRows=1;rowLines=0;fontStyle=1;align=center;resizeLast=1;" vertex="1" parent="1">
          <mxGeometry x="90" y="120" width="280" height="190" as="geometry" />
        </mxCell>
        <mxCell id="qkcDjprL795d0uu2f6pP-13" value="" style="shape=partialRectangle;collapsible=0;dropTarget=0;pointerEvents=0;fillColor=none;points=[[0,0.5],[1,0.5]];portConstraint=eastwest;top=0;left=0;right=0;bottom=1;" vertex="1" parent="qkcDjprL795d0uu2f6pP-12">
          <mxGeometry y="30" width="280" height="30" as="geometry" />
        </mxCell>
        <mxCell id="qkcDjprL795d0uu2f6pP-14" value="PK" style="shape=partialRectangle;overflow=hidden;connectable=0;fillColor=none;top=0;left=0;bottom=0;right=0;fontStyle=1;" vertex="1" parent="qkcDjprL795d0uu2f6pP-13">
          <mxGeometry width="40" height="30" as="geometry" />
        </mxCell>
        <mxCell id="qkcDjprL795d0uu2f6pP-15" value="IdProfesor int NOT NULL " style="shape=partialRectangle;overflow=hidden;connectable=0;fillColor=none;top=0;left=0;bottom=0;right=0;align=left;spacingLeft=6;fontStyle=5;" vertex="1" parent="qkcDjprL795d0uu2f6pP-13">
          <mxGeometry x="40" width="240" height="30" as="geometry" />
        </mxCell>
        <mxCell id="qkcDjprL795d0uu2f6pP-16" value="" style="shape=partialRectangle;collapsible=0;dropTarget=0;pointerEvents=0;fillColor=none;points=[[0,0.5],[1,0.5]];portConstraint=eastwest;top=0;left=0;right=0;bottom=0;" vertex="1" parent="qkcDjprL795d0uu2f6pP-12">
          <mxGeometry y="60" width="280" height="30" as="geometry" />
        </mxCell>
        <mxCell id="qkcDjprL795d0uu2f6pP-17" value="" style="shape=partialRectangle;overflow=hidden;connectable=0;fillColor=none;top=0;left=0;bottom=0;right=0;" vertex="1" parent="qkcDjprL795d0uu2f6pP-16">
          <mxGeometry width="40" height="30" as="geometry" />
        </mxCell>
        <mxCell id="qkcDjprL795d0uu2f6pP-18" value="nombre_profesor varchar(50) NOT NULL" style="shape=partialRectangle;overflow=hidden;connectable=0;fillColor=none;top=0;left=0;bottom=0;right=0;align=left;spacingLeft=6;" vertex="1" parent="qkcDjprL795d0uu2f6pP-16">
          <mxGeometry x="40" width="240" height="30" as="geometry" />
        </mxCell>
        <mxCell id="qkcDjprL795d0uu2f6pP-19" value="apellido_profesor varchar(50) NOT NULL" style="shape=partialRectangle;overflow=hidden;connectable=0;fillColor=none;top=0;left=0;bottom=0;right=0;align=left;spacingLeft=6;" vertex="1" parent="1">
          <mxGeometry x="131" y="210" width="229" height="30" as="geometry" />
        </mxCell>
        <mxCell id="qkcDjprL795d0uu2f6pP-20" value="dni int NOT NULL" style="shape=partialRectangle;overflow=hidden;connectable=0;fillColor=none;top=0;left=0;bottom=0;right=0;align=left;spacingLeft=6;" vertex="1" parent="1">
          <mxGeometry x="131" y="240" width="220" height="30" as="geometry" />
        </mxCell>
        <mxCell id="qkcDjprL795d0uu2f6pP-21" value="telefono varchar(50) NOT NULL" style="shape=partialRectangle;overflow=hidden;connectable=0;fillColor=none;top=0;left=0;bottom=0;right=0;align=left;spacingLeft=6;" vertex="1" parent="1">
          <mxGeometry x="131" y="270" width="220" height="30" as="geometry" />
        </mxCell>
        <mxCell id="qkcDjprL795d0uu2f6pP-22" value="Inscripciones" style="shape=table;startSize=30;container=1;collapsible=1;childLayout=tableLayout;fixedRows=1;rowLines=0;fontStyle=1;align=center;resizeLast=1;" vertex="1" parent="1">
          <mxGeometry x="120" y="320" width="250" height="160" as="geometry" />
        </mxCell>
        <mxCell id="qkcDjprL795d0uu2f6pP-23" value="" style="shape=partialRectangle;collapsible=0;dropTarget=0;pointerEvents=0;fillColor=none;points=[[0,0.5],[1,0.5]];portConstraint=eastwest;top=0;left=0;right=0;bottom=1;" vertex="1" parent="qkcDjprL795d0uu2f6pP-22">
          <mxGeometry y="30" width="250" height="30" as="geometry" />
        </mxCell>
        <mxCell id="qkcDjprL795d0uu2f6pP-24" value="PK" style="shape=partialRectangle;overflow=hidden;connectable=0;fillColor=none;top=0;left=0;bottom=0;right=0;fontStyle=1;" vertex="1" parent="qkcDjprL795d0uu2f6pP-23">
          <mxGeometry width="30" height="30" as="geometry" />
        </mxCell>
        <mxCell id="qkcDjprL795d0uu2f6pP-25" value="IdInscripcion int NOT NULL " style="shape=partialRectangle;overflow=hidden;connectable=0;fillColor=none;top=0;left=0;bottom=0;right=0;align=left;spacingLeft=6;fontStyle=5;" vertex="1" parent="qkcDjprL795d0uu2f6pP-23">
          <mxGeometry x="30" width="220" height="30" as="geometry" />
        </mxCell>
        <mxCell id="qkcDjprL795d0uu2f6pP-26" value="" style="shape=partialRectangle;collapsible=0;dropTarget=0;pointerEvents=0;fillColor=none;points=[[0,0.5],[1,0.5]];portConstraint=eastwest;top=0;left=0;right=0;bottom=0;" vertex="1" parent="qkcDjprL795d0uu2f6pP-22">
          <mxGeometry y="60" width="250" height="30" as="geometry" />
        </mxCell>
        <mxCell id="qkcDjprL795d0uu2f6pP-27" value="" style="shape=partialRectangle;overflow=hidden;connectable=0;fillColor=none;top=0;left=0;bottom=0;right=0;" vertex="1" parent="qkcDjprL795d0uu2f6pP-26">
          <mxGeometry width="30" height="30" as="geometry" />
        </mxCell>
        <mxCell id="qkcDjprL795d0uu2f6pP-28" value="IdModulo int NOT NULL" style="shape=partialRectangle;overflow=hidden;connectable=0;fillColor=none;top=0;left=0;bottom=0;right=0;align=left;spacingLeft=6;" vertex="1" parent="qkcDjprL795d0uu2f6pP-26">
          <mxGeometry x="30" width="220" height="30" as="geometry" />
        </mxCell>
        <mxCell id="qkcDjprL795d0uu2f6pP-29" value="IdAlumno int NOT NULL" style="shape=partialRectangle;overflow=hidden;connectable=0;fillColor=none;top=0;left=0;bottom=0;right=0;align=left;spacingLeft=6;" vertex="1" parent="1">
          <mxGeometry x="150" y="400" width="220" height="30" as="geometry" />
        </mxCell>
        <mxCell id="qkcDjprL795d0uu2f6pP-30" value="precio_unitario char(50) NOT NULL" style="shape=partialRectangle;overflow=hidden;connectable=0;fillColor=none;top=0;left=0;bottom=0;right=0;align=left;spacingLeft=6;" vertex="1" parent="1">
          <mxGeometry x="150" y="420" width="220" height="30" as="geometry" />
        </mxCell>
        <mxCell id="qkcDjprL795d0uu2f6pP-31" value="IdProveedor int NOT NULL" style="shape=partialRectangle;overflow=hidden;connectable=0;fillColor=none;top=0;left=0;bottom=0;right=0;align=left;spacingLeft=6;" vertex="1" parent="1">
          <mxGeometry x="150" y="440" width="220" height="30" as="geometry" />
        </mxCell>
        <mxCell id="qkcDjprL795d0uu2f6pP-32" value="" style="edgeStyle=entityRelationEdgeStyle;endArrow=ERzeroToMany;startArrow=ERone;endFill=1;startFill=0;entryX=0;entryY=0.5;entryDx=0;entryDy=0;" edge="1" parent="1">
          <mxGeometry width="100" height="100" relative="1" as="geometry">
            <mxPoint x="370" y="455" as="sourcePoint" />
            <mxPoint x="450.0000000000002" y="510" as="targetPoint" />
          </mxGeometry>
        </mxCell>
        <mxCell id="qkcDjprL795d0uu2f6pP-33" value="" style="endArrow=none;html=1;entryX=1;entryY=0.5;entryDx=0;entryDy=0;exitX=1;exitY=0.5;exitDx=0;exitDy=0;" edge="1" parent="1" source="qkcDjprL795d0uu2f6pP-48" target="qkcDjprL795d0uu2f6pP-3">
          <mxGeometry width="50" height="50" relative="1" as="geometry">
            <mxPoint x="750" y="220" as="sourcePoint" />
            <mxPoint x="800" y="170" as="targetPoint" />
            <Array as="points">
              <mxPoint x="800" y="345" />
              <mxPoint x="800" y="250" />
              <mxPoint x="800" y="165" />
            </Array>
          </mxGeometry>
        </mxCell>
        <mxCell id="qkcDjprL795d0uu2f6pP-34" value="FK1" style="text;html=1;align=center;verticalAlign=middle;resizable=0;points=[];autosize=1;" vertex="1" parent="1">
          <mxGeometry x="90" y="245" width="40" height="20" as="geometry" />
        </mxCell>
        <mxCell id="qkcDjprL795d0uu2f6pP-35" value="" style="endArrow=classic;startArrow=classic;html=1;entryX=0;entryY=0.5;entryDx=0;entryDy=0;" edge="1" parent="1" target="qkcDjprL795d0uu2f6pP-42">
          <mxGeometry width="50" height="50" relative="1" as="geometry">
            <mxPoint x="370" y="410" as="sourcePoint" />
            <mxPoint x="120" y="380" as="targetPoint" />
            <Array as="points">
              <mxPoint x="400" y="410" />
              <mxPoint x="400" y="395" />
              <mxPoint x="400" y="365" />
            </Array>
          </mxGeometry>
        </mxCell>
        <mxCell id="qkcDjprL795d0uu2f6pP-36" value="&lt;div&gt;Caso 3&lt;/div&gt;&lt;div&gt;Módulo 1 Unidad 2&lt;/div&gt;" style="text;html=1;strokeColor=none;fillColor=none;align=center;verticalAlign=middle;whiteSpace=wrap;rounded=0;" vertex="1" parent="1">
          <mxGeometry x="110" y="40" width="120" height="20" as="geometry" />
        </mxCell>
        <mxCell id="qkcDjprL795d0uu2f6pP-37" value="FK1" style="shape=partialRectangle;overflow=hidden;connectable=0;fillColor=none;top=0;left=0;bottom=0;right=0;" vertex="1" parent="1">
          <mxGeometry x="450" y="385" width="30" height="30" as="geometry" />
        </mxCell>
        <mxCell id="qkcDjprL795d0uu2f6pP-38" value="Legajo int NOT NULL" style="shape=partialRectangle;overflow=hidden;connectable=0;fillColor=none;top=0;left=0;bottom=0;right=0;align=left;spacingLeft=6;" vertex="1" parent="1">
          <mxGeometry x="480" y="385" width="260" height="30" as="geometry" />
        </mxCell>
        <mxCell id="qkcDjprL795d0uu2f6pP-39" value="" style="shape=partialRectangle;overflow=hidden;connectable=0;fillColor=none;top=0;left=0;bottom=0;right=0;" vertex="1" parent="1">
          <mxGeometry x="450" y="410" width="30" height="30" as="geometry" />
        </mxCell>
        <mxCell id="qkcDjprL795d0uu2f6pP-40" value="Fecha_nacimiento date NOT NULL" style="shape=partialRectangle;overflow=hidden;connectable=0;fillColor=none;top=0;left=0;bottom=0;right=0;align=left;spacingLeft=6;" vertex="1" parent="1">
          <mxGeometry x="480" y="410" width="260" height="30" as="geometry" />
        </mxCell>
        <mxCell id="qkcDjprL795d0uu2f6pP-41" value="Alumnos" style="shape=table;startSize=30;container=1;collapsible=1;childLayout=tableLayout;fixedRows=1;rowLines=0;fontStyle=1;align=center;resizeLast=1;" vertex="1" parent="1">
          <mxGeometry x="450" y="320" width="290" height="230" as="geometry" />
        </mxCell>
        <mxCell id="qkcDjprL795d0uu2f6pP-42" value="" style="shape=partialRectangle;collapsible=0;dropTarget=0;pointerEvents=0;fillColor=none;points=[[0,0.5],[1,0.5]];portConstraint=eastwest;top=0;left=0;right=0;bottom=1;" vertex="1" parent="qkcDjprL795d0uu2f6pP-41">
          <mxGeometry y="30" width="290" height="30" as="geometry" />
        </mxCell>
        <mxCell id="qkcDjprL795d0uu2f6pP-43" value="PK" style="shape=partialRectangle;overflow=hidden;connectable=0;fillColor=none;top=0;left=0;bottom=0;right=0;fontStyle=1;" vertex="1" parent="qkcDjprL795d0uu2f6pP-42">
          <mxGeometry width="30" height="30" as="geometry" />
        </mxCell>
        <mxCell id="qkcDjprL795d0uu2f6pP-44" value="IdAlumno int NOT NULL " style="shape=partialRectangle;overflow=hidden;connectable=0;fillColor=none;top=0;left=0;bottom=0;right=0;align=left;spacingLeft=6;fontStyle=5;" vertex="1" parent="qkcDjprL795d0uu2f6pP-42">
          <mxGeometry x="30" width="260" height="30" as="geometry" />
        </mxCell>
        <mxCell id="qkcDjprL795d0uu2f6pP-45" value="" style="shape=partialRectangle;collapsible=0;dropTarget=0;pointerEvents=0;fillColor=none;points=[[0,0.5],[1,0.5]];portConstraint=eastwest;top=0;left=0;right=0;bottom=0;" vertex="1" parent="qkcDjprL795d0uu2f6pP-41">
          <mxGeometry y="60" width="290" height="30" as="geometry" />
        </mxCell>
        <mxCell id="qkcDjprL795d0uu2f6pP-46" value="" style="shape=partialRectangle;overflow=hidden;connectable=0;fillColor=none;top=0;left=0;bottom=0;right=0;" vertex="1" parent="qkcDjprL795d0uu2f6pP-45">
          <mxGeometry width="30" height="30" as="geometry" />
        </mxCell>
        <mxCell id="qkcDjprL795d0uu2f6pP-47" value="&#xa;&#xa;" style="shape=partialRectangle;overflow=hidden;connectable=0;fillColor=none;top=0;left=0;bottom=0;right=0;align=left;spacingLeft=6;" vertex="1" parent="qkcDjprL795d0uu2f6pP-45">
          <mxGeometry x="30" width="260" height="30" as="geometry" />
        </mxCell>
        <mxCell id="qkcDjprL795d0uu2f6pP-48" value="" style="shape=partialRectangle;collapsible=0;dropTarget=0;pointerEvents=0;fillColor=none;points=[[0,0.5],[1,0.5]];portConstraint=eastwest;top=0;left=0;right=0;bottom=0;" vertex="1" parent="qkcDjprL795d0uu2f6pP-41">
          <mxGeometry y="90" width="290" height="30" as="geometry" />
        </mxCell>
        <mxCell id="qkcDjprL795d0uu2f6pP-49" value="" style="shape=partialRectangle;overflow=hidden;connectable=0;fillColor=none;top=0;left=0;bottom=0;right=0;fontStyle=1" vertex="1" parent="qkcDjprL795d0uu2f6pP-48">
          <mxGeometry width="30" height="30" as="geometry" />
        </mxCell>
        <mxCell id="qkcDjprL795d0uu2f6pP-50" value="" style="shape=partialRectangle;overflow=hidden;connectable=0;fillColor=none;top=0;left=0;bottom=0;right=0;align=left;spacingLeft=6;fontStyle=1" vertex="1" parent="qkcDjprL795d0uu2f6pP-48">
          <mxGeometry x="30" width="260" height="30" as="geometry" />
        </mxCell>
        <mxCell id="qkcDjprL795d0uu2f6pP-51" value="FK1" style="shape=partialRectangle;overflow=hidden;connectable=0;fillColor=none;top=0;left=0;bottom=0;right=0;" vertex="1" parent="1">
          <mxGeometry x="450" y="240" width="30" height="30" as="geometry" />
        </mxCell>
        <mxCell id="qkcDjprL795d0uu2f6pP-52" value="Nombre_modulo varchar(50) NOT NULL" style="shape=partialRectangle;overflow=hidden;connectable=0;fillColor=none;top=0;left=0;bottom=0;right=0;align=left;spacingLeft=6;" vertex="1" parent="1">
          <mxGeometry x="480" y="240" width="230" height="30" as="geometry" />
        </mxCell>
        <mxCell id="qkcDjprL795d0uu2f6pP-53" value="nombre_alumno varchar(50) NOT NULL" style="shape=partialRectangle;overflow=hidden;connectable=0;fillColor=none;top=0;left=0;bottom=0;right=0;align=left;spacingLeft=6;fontStyle=0" vertex="1" parent="1">
          <mxGeometry x="480" y="440" width="260" height="30" as="geometry" />
        </mxCell>
        <mxCell id="qkcDjprL795d0uu2f6pP-54" value="apellido_alumno varchar(50) NOT NULL" style="shape=partialRectangle;overflow=hidden;connectable=0;fillColor=none;top=0;left=0;bottom=0;right=0;align=left;spacingLeft=6;fontStyle=0" vertex="1" parent="1">
          <mxGeometry x="480" y="470" width="260" height="30" as="geometry" />
        </mxCell>
      </root>
    </mxGraphModel>
  </diagram>
</mxfile>
